<?xml version="1.0" standalone="no"?><!DOCTYPE svg PUBLIC "-//W3C//DTD SVG 1.1//EN" "http://www.w3.org/Graphics/SVG/1.1/DTD/svg11.dtd"><svg t="1618506218740" class="icon" viewBox="0 0 1024 1024" version="1.1" xmlns="http://www.w3.org/2000/svg" p-id="3464" xmlns:xlink="http://www.w3.org/1999/xlink" width="512" height="512"><defs><style type="text/css"></style></defs><path d="M156.01854658 328.14285752l-1.28571416 0.64285664v364.5l357.42857168 187.71428584V505.89285752L156.01854658 328.14285752z" fill="#ffffff" p-id="3465"></path><path d="M868.62568994 328.46428584l-356.78571416-187.71428584-342.3214292 180-13.82142832 7.39285752 356.14285752 177.75 4.1785708-1.92857168 353.5714292-174.85714336z m-353.57142832 175.5l-4.17857168 3.21428584z" fill="#f9f28b" p-id="3466"></path><path d="M939.98283242 294.07142832a61.71428584 61.71428584 0 0 0-25.39285664-26.6785708L539.16140411 68.75a58.82142832 58.82142832 0 0 0-54.64285753 0L109.4114041 266.10714248a53.03571416 53.03571416 0 0 0-15.42857168 13.8214292 59.46428584 59.46428584 0 0 0-9.64285664 12.53571416A55.28571416 55.28571416 0 0 0 77.26854658 319.14285752v385.71428496a59.14285752 59.14285752 0 0 0 32.14285753 52.0714292l374.78571415 197.35714248a64.28571416 64.28571416 0 0 0 26.67857168 7.71428584h4.5a61.71428584 61.71428584 0 0 0 22.82142832-6.10714248l374.78571416-198.32142919a59.78571416 59.78571416 0 0 0 32.14285752-52.71428585V319.14285752a57.21428584 57.21428584 0 0 0-5.14285752-25.0714292z m-70.39285664 35.03571416l-353.5714292 174.85714336-4.1785708 2.25v375.10714248L154.08997578 693.28571416V328.78571416l13.82142832-7.39285664 343.92857168-180.64285752 356.78571416 187.71428584z" fill="#e98f36" p-id="3467"></path></svg>